<svg xmlns="http://www.w3.org/2000/svg" viewBox="0 0 1024 1024">
  <!-- Traced from the Codex concept tree2-short-2.png; mark-1024.png is the raster master. -->
  <rect x="64" y="64" width="896" height="896" rx="208" fill="#084A29"/>
  <g fill="#F9F0DA" transform="translate(64 64) scale(1.75) translate(0 512) scale(1 -1)">
    <path d="M237 468 c-1 -1 -3 -2 -4 -2 -3 -1 -4 -6 -1 -7 1 0 1 0 0 -1 -1 -1 -2 -1 -2 0 -2 1 -6 1 -7 0 0 0 -1 -1 -2 -2 -4 -2 -3 -7 1 -8 2 -1 2 -1 0 -2 -1 0 -2 -1 -3 0 -1 0 -2 -1 -3 -1 -2 -2 -3 -2 -2 1 0 2 -4 4 -6 3 0 -1 -1 0 -1 1 -2 3 -8 -1 -7 -4 0 -1 0 -1 -1 0 -2 1 -3 1 -9 -2 -2 -1 -2 -4 0 -6 2 -2 2 -2 -2 -2 -3 -1 -6 -6 -4 -7 1 -1 2 -2 2 -3 0 -1 1 -1 2 -1 2 1 3 1 3 -1 1 -2 6 -2 7 0 1 1 1 1 2 0 1 -2 4 -1 4 1 0 1 1 2 2 2 2 0 3 -2 1 -2 0 0 -1 -1 -2 -3 -1 -3 2 -6 4 -5 1 0 2 0 2 -1 1 -1 1 -1 0 -1 -1 0 -1 -1 -1 -2 0 -2 0 -2 -1 -1 -1 1 -6 2 -7 1 -1 0 -3 0 -4 -1 -3 0 -3 0 -1 2 2 3 -1 6 -5 6 -1 0 -3 1 -3 1 -1 1 -7 0 -7 -1 0 -1 0 -1 -1 -1 -1 0 -1 1 -1 3 0 2 -1 3 -1 3 -1 0 -2 0 -3 0 0 0 -1 1 -2 2 -2 2 -9 -1 -9 -4 0 -1 0 -1 -1 0 -1 2 -8 0 -9 -3 -1 -2 -1 -2 1 -3 1 -2 1 -2 -1 -2 -5 0 -8 -7 -3 -7 1 0 2 -1 2 -2 -1 -3 6 -4 9 -2 1 1 1 1 2 0 1 -1 0 -2 -1 -2 -3 0 -5 -3 -3 -4 1 -2 1 -3 0 -3 -1 0 -2 1 -2 2 -1 0 -2 1 -2 1 -1 0 -2 1 -2 1 0 1 -1 1 -3 1 -1 -1 -2 -1 -2 -1 -1 0 -2 -1 -2 -2 0 -1 -1 -2 -2 -2 -2 0 -3 1 -1 3 1 1 0 4 -2 4 -1 0 -2 1 -2 2 -2 2 -7 1 -7 -2 0 -1 -2 -1 -2 1 -1 1 -5 2 -5 0 0 0 -1 -1 -2 -1 -2 0 -2 0 -2 -2 0 -1 -1 -2 -2 -3 -4 -1 -1 -6 2 -6 1 0 2 0 2 -1 -1 -1 -2 -1 -3 -1 -1 0 -3 -1 -4 -2 -1 -1 -1 -1 -1 1 0 3 -10 3 -11 0 0 -1 -1 -2 -2 -2 -2 0 -2 -3 0 -5 1 -2 1 -2 -1 -2 -2 0 -3 0 -3 -1 0 -1 0 -1 -1 -1 -3 2 -5 -2 -3 -5 1 -1 1 -1 -1 -2 -2 -1 -2 -5 0 -5 1 0 2 -1 3 -2 1 -1 1 -1 2 0 2 1 2 1 2 0 0 -2 2 -3 3 -2 1 0 2 0 3 0 2 0 3 1 3 3 0 2 0 2 2 1 2 -1 2 -1 4 1 1 1 2 2 3 1 3 0 2 -2 0 -2 -1 0 -2 -1 -2 -1 0 -1 -1 -2 -2 -2 -1 -1 -1 -5 1 -5 1 0 1 -1 0 -2 0 -1 -1 0 -2 0 -1 1 -2 1 -4 -1 -2 -3 -3 -4 -2 -2 0 2 -5 5 -7 4 -1 -1 -3 -1 -5 -1 -4 0 -9 -5 -8 -9 1 0 0 -1 -1 -2 -1 -1 -1 -1 -1 0 0 3 -5 5 -6 3 -1 -1 -3 -2 -4 -2 -4 0 -6 -2 -4 -5 1 -1 1 -1 0 -2 -4 -1 -5 -7 -1 -6 1 0 1 -1 1 -1 0 -2 2 -3 3 -2 2 1 6 1 6 -1 0 0 -1 -1 -2 -1 -1 0 -2 -1 -3 -2 -1 -1 -1 -1 -3 0 -2 1 -2 1 -4 -1 -1 -1 -2 -1 -3 -1 -2 0 -5 -3 -3 -4 1 -1 0 -2 -1 -3 -3 -2 -2 -5 1 -5 1 0 2 0 2 -1 0 -2 2 -1 4 1 1 1 2 1 2 0 0 0 0 -1 -1 -2 -1 0 0 -5 1 -6 2 -1 6 1 6 2 0 1 1 1 2 0 2 -2 6 3 6 6 -1 1 -1 2 0 1 1 0 2 0 3 1 1 1 1 1 1 -2 -1 -3 1 -6 3 -4 0 1 1 1 1 0 2 -2 5 -2 5 0 0 1 1 1 3 2 2 1 2 4 -1 7 -1 0 -1 1 1 2 1 1 2 1 2 -1 1 -2 1 -2 3 -2 1 1 2 0 2 0 0 -1 1 -1 2 -1 1 0 2 0 2 1 0 0 1 1 2 2 3 1 5 4 3 5 -1 0 -1 1 0 3 0 2 0 2 -4 3 -2 0 -4 1 -3 1 0 1 1 1 1 0 1 0 1 1 2 2 l1 2 1 -2 c2 -3 5 -2 6 1 1 3 2 3 2 0 1 -3 3 -4 8 -2 3 0 3 1 3 3 0 2 0 2 3 0 2 -1 6 0 5 3 -1 0 0 1 1 1 2 1 1 4 -1 5 -2 0 -2 1 -1 1 1 2 -1 5 -3 4 0 -1 -1 -1 -2 0 0 1 -1 1 -2 0 -2 0 -2 0 -1 3 1 2 1 2 3 1 1 -2 2 -2 3 -1 0 1 1 1 2 1 2 -1 7 4 5 5 -1 2 -1 4 0 2 1 -1 2 -1 3 0 1 2 2 1 1 -2 -1 -2 3 -8 5 -6 1 1 2 1 3 -1 1 -2 6 0 6 3 0 2 0 2 1 1 3 -3 8 3 5 7 -1 3 -1 5 0 5 1 0 1 -1 1 -1 0 -3 2 -3 4 -2 1 1 1 1 1 -1 0 -3 0 -3 2 -3 1 1 2 0 2 -1 0 0 1 -1 3 -1 4 1 5 2 4 4 0 3 1 2 3 0 2 -2 5 -2 5 0 0 1 1 2 3 2 2 1 3 5 0 6 -1 0 -1 1 0 2 2 2 -3 5 -6 4 -3 0 -5 1 -3 2 3 2 1 7 -1 7 -1 0 -2 0 -2 1 0 1 -1 1 -2 1 -1 0 -2 1 -3 1 -1 1 -2 1 -3 0 -1 0 -4 -1 -5 -1 l-2 0 2 3 c2 1 4 2 4 1 2 -1 5 1 5 3 0 2 0 2 2 1 3 -1 8 0 7 2 -1 0 -1 1 0 1 0 1 1 1 2 0 0 -1 1 -1 1 0 0 0 1 0 1 -1 1 -1 0 -1 0 -1 -1 0 -2 -1 -3 -2 0 -1 -1 -2 -2 -2 -1 -1 -1 -5 0 -5 1 0 2 -1 2 -3 1 -3 1 -3 3 -3 1 1 2 0 2 -1 1 -1 2 -2 5 -2 4 0 4 1 4 3 0 1 1 1 1 1 1 0 2 1 2 1 1 1 1 1 2 1 0 -1 0 -2 -1 -2 -1 -2 -1 -4 1 -4 1 0 2 -1 2 -1 1 -3 9 -2 10 1 0 2 1 2 1 1 2 -2 4 -1 5 2 2 3 0 9 -3 9 -1 0 -2 0 -2 1 0 1 2 2 4 1 2 -1 2 -1 3 0 2 3 3 2 2 -1 0 -3 0 -3 2 -3 1 0 2 0 3 -1 1 -2 5 0 5 3 -1 1 -1 1 3 -1 3 -1 6 0 5 2 0 1 1 2 2 2 2 0 3 0 3 2 0 1 0 2 -1 2 -1 0 -1 1 -1 2 0 2 0 3 -2 3 -1 0 -2 1 -2 1 0 1 -1 1 -2 1 -2 -1 -3 -1 -3 0 -1 1 0 1 0 1 3 0 5 3 3 4 -1 0 -1 1 -1 2 1 1 0 1 -1 2 -1 0 -2 1 -3 1 -1 1 -3 1 -3 0 -1 0 -2 0 -2 1 0 1 0 2 -1 3 -2 1 -7 -1 -7 -3 0 0 -1 -1 -2 -1 -1 0 -1 1 -1 1 1 3 -2 5 -4 3 0 -1 -1 -1 -2 -1 0 1 1 2 2 3 1 1 2 2 1 3 0 1 0 1 1 0 4 -3 8 1 6 4 -2 3 -2 3 -1 3 1 0 2 0 2 1 0 1 0 1 1 1 1 0 1 -1 1 -1 0 -3 0 -4 2 -3 1 0 2 0 2 -1 0 -1 1 -2 1 -2 2 -1 7 3 7 5 0 0 1 1 2 1 2 0 2 1 2 4 0 2 1 3 2 3 1 0 2 -1 2 -2 0 -1 0 -1 2 -1 2 0 3 -1 3 -2 0 -2 -1 -2 -3 -2 -2 0 -3 -1 -4 -2 0 -1 -1 -2 -2 -2 -2 0 -3 -2 -4 -3 0 -1 0 -2 0 -3 -1 -2 1 -5 3 -5 0 1 1 0 1 -1 0 -2 1 -2 2 -2 1 0 2 -1 3 -2 1 -1 10 -1 9 1 0 1 1 2 3 2 2 0 2 0 2 2 0 1 1 2 3 2 2 0 3 -1 2 -2 -1 -3 -1 -6 1 -5 1 0 2 -1 2 -2 0 -3 3 -3 5 -1 1 1 2 1 2 0 2 -2 4 -1 5 1 0 1 1 2 2 2 1 0 1 1 1 3 -1 3 0 4 1 2 1 0 2 -1 3 0 0 0 1 0 1 -1 0 -1 0 -1 -1 -1 -1 0 -1 -4 0 -5 1 0 2 -1 4 -1 1 0 2 1 3 1 1 1 1 1 1 0 0 0 0 -2 1 -3 0 -1 0 -1 -2 -1 -3 1 -5 0 -6 -3 -1 -2 -1 -2 -2 -1 -1 1 -2 2 -3 2 -1 0 -2 0 -3 1 0 1 -1 1 -3 0 -1 0 -2 -1 -3 -1 -1 -1 -2 -1 -2 -2 1 -1 0 -1 -1 -1 -4 0 -6 -5 -4 -7 0 -1 1 -2 2 -2 1 0 1 -1 0 -2 0 -1 -1 -1 -2 0 -1 2 -7 -2 -7 -4 1 -1 0 -2 0 -3 -2 0 -1 -3 0 -3 1 0 2 -1 2 -2 1 -2 4 -2 6 0 2 1 2 1 2 -1 0 -2 0 -2 1 -2 1 0 2 0 3 -1 0 -1 1 -1 2 1 1 1 3 2 3 2 0 0 0 0 0 1 0 2 1 2 3 1 1 0 2 0 3 2 1 1 1 1 2 0 0 -2 0 -3 -1 -3 -2 -1 -2 -4 0 -5 0 0 1 -1 1 -2 0 -1 1 -1 4 -1 0 0 1 0 1 -1 1 -1 4 0 4 2 0 2 0 2 3 0 3 -1 3 -1 6 1 2 2 2 3 1 4 -1 1 -1 2 0 3 0 1 0 2 -1 3 -1 0 -2 1 -2 2 0 1 0 1 2 0 1 -1 1 -1 3 0 2 2 3 0 1 -2 -1 -1 -1 -1 1 -2 1 0 2 -1 2 -1 0 -1 1 -1 3 -1 1 1 3 0 4 0 1 -1 1 -1 -1 -1 -1 0 -2 -1 -3 -1 0 -1 -1 -2 -1 -1 -2 1 -4 -7 -2 -8 1 -1 2 -2 2 -3 1 -2 6 -2 7 0 2 2 3 2 3 -1 0 -1 1 -2 1 -2 1 0 2 -1 3 -2 2 -1 2 -1 3 0 1 2 2 2 3 1 1 -1 1 -1 3 1 1 1 2 2 3 2 2 1 2 1 1 4 -2 3 -2 3 0 3 1 1 2 0 2 -1 0 -2 2 -2 3 -1 1 1 2 1 2 0 1 0 0 -1 -1 -2 -3 -2 -3 -4 0 -5 1 0 2 -1 1 -1 0 -2 3 -3 4 -2 1 1 2 1 2 0 1 -3 5 -2 6 0 0 1 1 2 3 2 1 0 1 0 1 3 0 2 0 2 2 1 1 -2 1 -3 1 -4 -2 -1 2 -5 4 -5 1 0 1 0 2 -1 0 0 -1 -1 -2 -1 -1 0 -2 -1 -2 -1 0 -1 -1 -1 -1 0 -2 2 -8 1 -9 -1 0 -1 -1 -2 -2 -1 -2 0 -6 -2 -6 -3 1 -1 0 -2 0 -3 -2 -1 2 -5 4 -4 1 0 1 0 1 -1 0 -1 -1 -1 -2 -1 -3 0 -7 -3 -6 -5 1 0 1 -1 0 -1 -3 -1 -2 -4 0 -5 1 0 2 -1 2 -2 0 -1 3 -2 4 -1 0 1 1 1 2 1 0 0 2 0 2 2 2 1 2 1 2 -1 -1 -4 1 -7 4 -5 1 1 2 1 3 0 1 -1 1 -1 3 0 1 1 2 2 3 2 2 0 2 2 1 5 -2 3 -2 3 1 3 1 1 2 0 2 -1 -1 -2 3 -4 5 -2 2 1 3 0 3 -1 0 0 -2 -2 -4 -2 -2 -2 -3 -3 -3 -4 1 -1 1 -2 0 -3 -2 -2 1 -5 4 -3 3 1 4 1 2 0 -1 -2 -1 -4 1 -4 0 0 2 -1 3 -1 1 -2 4 -1 4 1 0 2 0 2 2 1 1 -2 4 -1 4 2 -1 0 0 1 0 1 1 1 1 1 0 3 -1 2 -1 2 0 2 3 0 3 0 3 -2 0 -1 1 -1 3 -1 3 0 5 -2 2 -3 -3 -1 -5 -4 -3 -5 1 -1 2 -2 1 -3 0 -1 0 -2 2 -2 0 0 2 -1 3 -2 1 -2 5 0 8 4 2 1 2 1 2 -1 0 -3 0 -3 1 -3 1 0 2 -1 2 -2 1 -1 4 -1 5 0 0 1 2 2 3 2 3 1 4 6 1 8 -2 1 -2 1 -1 2 1 1 1 1 2 0 4 -3 10 2 8 6 -1 2 -2 3 -3 3 -2 0 -2 0 -1 1 1 2 1 5 -1 5 -1 0 -3 1 -4 1 -3 2 -8 2 -8 0 0 -1 0 -1 -1 -1 -1 0 -1 0 -1 1 1 1 -2 4 -3 3 -1 0 -2 2 -1 3 0 1 1 1 1 0 1 -1 5 -1 5 0 0 1 1 1 1 1 3 0 4 0 4 1 -1 1 0 2 1 3 1 2 0 4 -3 5 -3 0 -3 0 -2 2 2 3 1 5 -4 5 -2 1 -4 1 -5 -1 -1 -1 -1 -1 -1 1 0 2 0 3 -2 3 -1 0 -2 0 -2 1 0 2 -4 1 -5 -1 0 -1 -1 -1 -2 0 -1 1 -4 1 -4 -1 0 -1 -1 -1 -3 -1 -2 0 -3 0 -3 1 1 1 1 1 1 2 0 0 1 0 2 0 0 0 1 0 1 1 0 2 -3 6 -5 6 -1 0 -1 2 0 2 1 1 2 0 3 -1 1 0 2 -1 3 0 1 0 2 0 2 -1 0 -1 1 -1 2 -1 1 0 2 0 2 1 0 0 1 1 2 1 1 0 2 0 2 1 0 1 0 2 1 2 2 1 3 5 1 5 -1 0 -1 1 -1 2 0 0 -1 1 -2 1 -1 0 -2 0 -2 1 -1 1 0 1 0 1 3 0 3 2 1 5 -1 2 -2 4 -4 4 -1 0 -2 0 -3 0 0 1 -1 0 -2 -1 -2 -1 -2 -1 -2 1 0 3 -3 5 -5 3 -1 0 -3 -1 -5 -1 -2 -1 -3 -2 -3 -4 0 -2 0 -2 -1 -1 -1 0 -2 1 -4 1 -2 0 -2 0 -1 2 2 2 0 5 -3 5 -1 0 -2 1 -2 2 0 1 0 1 2 0 2 -1 3 -1 4 0 0 1 1 2 2 2 2 0 2 3 0 5 -1 1 -1 2 -1 2 0 0 -1 0 -2 0 -2 0 -2 1 -1 3 2 1 0 4 -2 4 -1 0 -2 1 -2 2 -1 1 -5 1 -6 -1 0 -1 -1 -1 -1 0 -1 1 -4 1 -7 1 0 0 -1 -1 -1 -2 0 -1 -1 -2 -1 -2 -1 0 -1 -1 0 -2 1 -1 1 -1 -1 -1 -1 0 -2 1 -2 3 0 1 -1 2 -2 2 -1 0 -2 0 -3 1 -1 1 -4 1 -4 -1 0 0 -1 -1 -2 0 -2 0 -3 0 -3 -1 0 0 -1 -1 -1 0 -3 0 -5 -3 -3 -4 1 -2 1 -2 -4 -2 -1 0 -2 -1 -2 -2 l-1 -2 -1 2 c0 3 -3 4 -5 2 -1 -1 -1 -1 -1 1 0 1 1 2 2 3 1 1 1 1 -2 4 -3 3 -3 5 0 3 1 -1 2 -1 3 1 2 1 2 1 2 -1 0 -3 0 -3 2 -3 1 1 2 0 3 0 1 -3 5 -1 4 2 0 1 2 1 3 0 0 -1 2 -1 2 0 0 1 1 2 2 3 2 2 2 2 1 3 -1 1 -2 2 -2 3 0 1 -1 1 -2 1 -1 -1 -2 0 -2 0 -1 0 0 1 1 1 1 1 2 2 2 4 0 3 -1 4 -5 4 -3 0 -4 1 -4 3 0 1 -1 2 -2 2 -1 0 -2 0 -3 0 -1 1 -3 1 -4 0 -1 0 -2 0 -3 0 -2 0 -4 -2 -3 -4 0 -1 0 -2 -1 -2 -1 0 -1 0 -1 1 0 1 -1 1 -2 1 -1 -1 -2 0 -2 1 -1 2 -1 2 -3 2 -2 -1 -3 0 -3 1 -1 1 0 2 2 1 2 -1 2 -1 3 0 0 1 1 2 2 2 2 0 2 3 0 5 -1 1 -1 2 -1 3 0 2 -3 4 -4 3 -1 0 -2 1 -2 2 -1 0 -1 1 -2 1 0 -1 -1 0 -1 1 -1 0 -2 1 -3 1 -2 0 -5 -3 -4 -4 0 -1 0 -1 -1 -1 -1 0 -2 1 -2 2 0 1 0 1 -1 1 -1 0 -2 1 -2 1 0 1 -1 1 -2 1 -2 0 -3 0 -3 -1 0 -1 -1 -1 -2 -1 -3 0 -3 -1 -3 -4 0 -2 -1 -1 -4 1 -1 1 -3 2 -4 2 -1 0 -2 1 -2 2 0 1 1 1 2 1 3 -2 8 4 6 6 -2 0 -2 2 -2 3 0 2 -1 2 -3 2 -2 0 -3 1 -3 1 0 0 -1 2 -3 2 -3 2 -7 1 -7 -1 0 -1 -1 -2 -2 -1 -2 0 -2 1 -1 1 2 3 -6 7 -9 5 -1 0 -3 -1 -3 -1 -1 0 -2 -1 -2 -1 0 -1 -1 -2 -1 -2 -2 -1 -2 0 -2 1 0 2 0 2 -2 2 -1 -1 -2 0 -3 1 -2 2 -4 1 -5 -1z"/>
    <path d="M263 404 c-1 -1 -1 -1 -2 0 -2 3 -2 0 1 -8 3 -11 3 -18 -1 -25 l-3 -5 -2 2 c-2 1 -4 2 -5 3 -3 1 -6 7 -6 10 0 3 0 3 -2 2 -2 -1 -3 -2 -2 -4 1 -2 1 -4 1 -4 0 -1 -4 0 -7 2 -2 2 -2 2 -2 1 1 -1 0 -2 0 -2 -2 -1 5 -5 7 -5 1 0 4 -2 7 -4 6 -5 7 -8 8 -16 l1 -4 -8 2 c-10 2 -14 7 -14 14 0 3 -4 10 -5 10 -1 0 -1 -1 1 -3 0 -2 1 -4 1 -6 l0 -2 -4 2 c-2 2 -3 3 -4 3 -1 -1 2 -5 4 -7 3 -1 6 -7 5 -8 -1 0 -2 0 -4 1 -2 1 -4 1 -4 0 -1 -1 3 -3 7 -4 2 0 5 -2 7 -3 1 -2 4 -3 6 -3 5 -2 7 -15 3 -26 l-2 -7 -8 6 c-13 9 -14 11 -14 37 0 8 -1 17 -2 16 -1 -1 -1 -1 -2 0 0 0 -1 1 -2 1 -1 0 -1 -1 1 -3 0 -2 1 -5 1 -6 0 -3 -7 4 -8 8 -1 4 -1 5 -2 5 0 0 -1 -1 0 -2 0 -2 -1 -3 -3 0 -4 3 -4 0 -1 -4 4 -5 5 -8 3 -5 -2 1 -5 1 -4 0 0 -1 -1 -2 -2 -2 -1 -1 -1 -1 2 -4 1 -2 3 -3 3 -2 1 0 2 0 3 0 1 0 1 1 1 3 0 3 0 3 3 -2 5 -6 4 -18 -1 -14 -1 1 -4 3 -7 4 -3 1 -4 3 -6 7 -2 2 -3 4 -3 3 -1 0 -2 -1 -2 0 -2 0 -1 -1 0 -4 3 -5 1 -5 -5 -2 l-5 3 2 -2 c2 -3 8 -7 10 -7 1 0 4 -1 6 -2 7 -5 9 -7 11 -14 l3 -7 -6 1 c-6 0 -6 0 -2 -5 5 -4 3 -4 -2 1 -3 2 -6 4 -7 4 -10 0 -20 14 -17 23 1 4 1 8 -1 9 -1 0 -1 -1 -1 -3 0 -5 -1 -5 -5 -1 -3 3 -3 3 -4 1 -2 -1 -1 -2 1 -4 3 -2 3 -4 4 -8 l1 -5 -5 1 c-7 0 -10 2 -13 7 -3 4 -6 6 -5 4 1 -3 0 -2 -4 1 -6 4 -6 2 2 -5 6 -6 6 -7 4 -7 -2 0 -4 1 -6 1 -2 2 -6 1 -4 0 4 -3 11 -5 17 -5 9 -1 13 -3 19 -9 4 -5 4 -5 2 -5 -5 -2 -8 -1 -11 2 -2 1 -4 2 -4 1 0 0 1 -1 2 -2 1 -1 2 -2 2 -3 -1 -4 5 -4 13 -3 4 1 7 2 8 1 1 0 5 -1 11 -2 19 -2 28 -10 35 -27 4 -11 8 -17 17 -28 20 -23 19 -34 -6 -65 -15 -19 -21 -29 -28 -48 -5 -14 -11 -24 -16 -30 -4 -5 -4 -3 2 5 1 2 3 8 4 13 2 7 2 8 3 6 2 -4 3 9 2 17 -1 3 -1 7 -1 9 0 1 -1 -1 -2 -5 -1 -5 -3 -11 -4 -13 -1 -3 -3 -8 -4 -12 -3 -17 -4 -20 -7 -24 -5 -10 -20 -21 -27 -21 -3 0 -12 -5 -18 -10 -8 -8 -12 -10 -24 -11 -9 -2 -12 -3 -19 -6 l-9 -4 -31 -1 -30 0 0 -2 1 -2 212 0 213 0 0 2 0 2 -30 0 -30 1 -10 4 c-7 3 -11 4 -17 5 -16 2 -19 3 -29 13 -5 4 -9 7 -14 9 -13 6 -17 8 -21 12 -9 10 -15 25 -19 45 l-1 11 -2 -7 c-2 -9 -2 -14 3 -25 2 -5 2 -6 1 -4 -1 1 -3 6 -5 10 l-3 7 -2 -4 c-5 -12 6 -33 21 -40 3 -1 8 -4 12 -7 4 -2 10 -6 13 -7 3 -2 6 -4 8 -5 3 -5 12 -10 17 -11 2 -1 7 -2 11 -4 l6 -3 -5 0 c-7 0 -13 2 -21 8 -5 4 -9 5 -21 8 -4 1 -6 3 -12 9 -5 5 -11 10 -14 11 -9 5 -19 18 -19 25 0 5 -2 4 -5 -3 -5 -8 -5 -9 -1 -16 3 -6 7 -10 15 -14 8 -4 12 -7 15 -15 4 -7 6 -9 11 -11 l3 -2 -4 0 c-3 1 -6 2 -7 3 -1 1 -5 3 -9 5 -4 2 -7 4 -9 4 -1 1 -3 3 -5 6 -2 2 -5 6 -8 7 -5 4 -9 10 -9 15 0 4 -1 4 -4 -2 l-2 -5 2 -6 c2 -3 3 -7 3 -9 0 -3 0 -5 2 -5 2 -1 3 0 3 3 0 4 1 4 7 -4 3 -3 7 -8 9 -9 l3 -3 -4 0 c-2 1 -6 3 -8 4 -3 2 -7 5 -9 6 -19 7 -19 11 -2 39 25 44 30 66 19 95 -4 11 -4 12 -6 6 -1 -3 -2 -6 -3 -8 -2 -4 -2 -4 0 -12 1 -9 1 -16 -4 -28 -2 -6 -5 -11 -4 -5 3 9 3 10 1 13 -1 2 -3 6 -4 9 l-2 5 -4 -6 -5 -6 4 -8 c3 -7 4 -10 5 -15 0 -7 1 -6 -11 -29 -4 -8 -9 -17 -10 -21 -3 -7 -3 -7 -6 1 -4 11 -5 32 0 45 4 12 7 17 27 42 20 26 23 46 9 75 -8 17 -8 20 1 37 3 7 7 16 8 20 1 3 2 8 2 10 2 8 13 18 25 21 6 2 17 11 12 11 -2 -1 -4 -1 -5 -2 -2 -2 -9 -5 -10 -4 -1 0 2 7 5 9 3 4 2 6 -2 3 l-2 -2 0 2 c0 1 0 2 -1 1 -1 0 -2 -1 -2 -3 0 -6 -4 -11 -12 -15 -7 -4 -7 -4 -8 3 0 6 0 6 5 11 3 4 4 5 2 5 -2 -1 -2 0 -2 1 0 2 -1 1 -4 -3 -5 -5 -6 -5 -6 1 -1 4 -3 6 -4 2 0 -2 -2 -2 -3 2 -1 2 -1 2 -2 0 0 -1 1 -4 2 -6 4 -6 5 -10 5 -17 0 -8 -2 -16 -4 -13 -1 1 -4 5 -6 8 -10 11 -11 17 -6 27 2 5 2 7 1 9 -1 2 0 9 1 10 0 0 1 2 0 4 0 3 0 5 3 8 2 3 3 5 2 6 0 2 -1 2 -2 -1 -1 -1 -3 -4 -4 -5 l-2 -2 -1 2 c-1 2 -1 4 0 6 0 2 0 3 -2 0z m-6 -66 c14 -8 17 -25 7 -38 -2 -2 -3 -5 -4 -6 l-2 -3 -3 5 c-2 6 -2 7 -1 14 1 10 1 21 0 25 -1 4 -1 5 3 3z m-29 -228 c0 -7 1 -12 3 -20 4 -15 3 -19 -10 -24 -5 -2 -10 -5 -12 -6 -4 -3 -12 -5 -13 -4 0 1 1 1 3 2 4 2 7 5 10 11 1 3 4 7 6 10 4 5 6 10 8 19 0 8 3 22 4 22 0 0 1 -4 1 -10z m-17 -13 c-2 -12 -8 -17 -22 -20 -5 -1 -10 -2 -14 -5 -4 -2 -9 -4 -13 -5 -4 -1 -8 -3 -13 -6 -4 -2 -7 -4 -10 -5 l-4 0 5 3 c3 1 7 4 9 5 3 2 6 4 8 4 3 1 6 3 8 4 4 4 8 6 19 9 9 3 16 7 22 13 3 3 6 6 6 6 0 0 0 -1 -1 -3z m-10 -27 c-1 0 -1 -2 -1 -2 0 -2 -5 -7 -9 -9 -3 -2 -7 -2 -13 -3 l-9 0 5 5 c7 6 9 8 18 9 3 1 7 1 7 2 1 1 2 0 2 -2z m133 -5 c8 -2 20 -8 17 -9 -13 -2 -28 3 -31 11 l-1 3 4 -2 c2 -1 7 -3 11 -3z m-90 1 c0 -7 -5 -10 -18 -10 -9 0 -9 1 3 4 4 1 8 3 10 5 4 5 5 5 5 1z m24 -6 c8 -3 9 -4 1 -4 -7 1 -11 3 -12 7 -1 2 -1 2 2 0 2 -1 6 -3 9 -3z m-102 2 c0 -3 -8 -6 -13 -6 l-3 0 4 3 c3 2 7 3 12 4 0 0 1 -1 0 -1z m-34 -2 c3 -1 -8 -4 -15 -4 -5 0 -4 1 4 3 6 2 9 2 11 1z m172 -1 c5 -2 5 -3 1 -3 -3 0 -5 1 -7 2 -3 4 -1 4 6 1z m88 0 c3 -1 5 -2 5 -2 2 -2 -7 -1 -14 1 l-6 2 5 0 c4 0 8 -1 10 -1z m-140 -2 c0 -1 -1 -1 -2 -1 -2 0 -2 0 -1 1 1 2 3 2 3 0z"/>
    <path d="M348 354 c-3 -3 -10 -8 -12 -8 -1 0 0 1 1 4 1 2 2 4 1 3 -1 0 -2 0 -2 1 -1 1 -1 1 -1 0 0 -3 -6 -10 -11 -12 -6 -3 -7 -3 -5 1 0 2 1 3 0 3 -2 0 -4 -4 -5 -8 0 -2 -1 -4 -1 -5 -1 -2 -2 -5 -3 -8 -2 -4 -4 -6 -9 -11 -9 -8 -13 -16 -14 -30 -1 -8 -2 -13 -4 -17 l-2 -6 2 -5 c6 -12 6 -15 7 -31 0 -12 1 -17 2 -20 l2 -3 -1 4 c0 2 0 16 1 30 1 26 1 30 8 35 2 2 4 8 4 12 0 4 1 4 -7 -2 l-3 -1 0 5 c1 6 5 13 8 17 l3 2 0 -9 c1 -13 0 -16 -1 -20 -2 -3 -2 -3 0 -2 6 2 7 5 7 22 1 12 0 12 -1 10 -2 -1 -2 -1 -2 0 1 3 7 6 14 8 3 1 7 2 8 3 2 1 4 1 7 0 3 -1 6 -1 9 -1 4 1 12 5 10 5 -1 0 -2 0 -2 1 0 2 0 2 -3 1 -3 -2 -12 -3 -12 -1 2 4 8 10 13 12 4 3 7 6 3 5 -7 -1 -7 -1 -6 2 1 2 3 5 6 8 2 2 4 4 3 4 -1 -1 -2 0 -2 0 0 1 -1 1 -2 -1 -1 -1 -3 -3 -4 -4 -2 -1 -4 -4 -6 -7 -5 -11 -12 -17 -24 -18 l-5 -1 1 3 c1 9 4 11 16 17 8 4 12 8 15 12 3 4 2 4 -1 1z"/>
    <path d="M146 329 c-3 0 -3 -1 -3 -4 -1 -2 -3 -2 -3 0 -1 2 -1 2 -3 2 -1 -1 -2 -1 -3 0 -2 1 -5 -1 -5 -3 0 0 -1 -1 -1 0 -1 0 -2 -1 -3 -1 -1 -1 -1 -2 -1 -2 1 0 0 -1 -1 -2 -2 -2 -2 -7 1 -8 0 0 2 0 3 0 0 0 1 0 1 -1 0 -1 -1 -1 -2 -1 0 1 -2 0 -2 -1 -2 -2 -4 -3 -4 0 -1 2 -7 2 -9 -1 0 -1 -1 -2 -2 -1 -1 1 -6 0 -6 -3 -1 -1 0 -2 1 -3 1 -1 1 -1 -1 -1 -2 0 -4 -2 -4 -4 1 -1 1 -2 0 -3 -2 -1 1 -4 3 -4 0 1 1 1 1 0 0 -1 1 -1 2 -1 1 0 2 0 2 1 0 1 1 1 1 1 1 0 2 1 2 1 0 1 1 1 2 1 1 -1 0 -2 -1 -4 -3 -4 -4 -5 -1 -5 0 0 1 -1 1 -2 0 -2 3 -3 5 -1 0 1 1 1 1 0 0 0 1 1 2 2 1 1 1 1 1 0 1 -2 4 -2 5 0 0 0 1 1 2 1 1 0 1 6 0 7 -2 1 -1 2 1 1 0 0 1 0 1 1 0 1 0 1 1 1 1 0 1 -1 1 -1 -1 -2 1 -4 3 -3 0 0 1 0 1 -1 0 -2 4 -1 5 1 0 1 1 2 3 2 1 0 2 0 2 2 0 1 0 2 1 3 2 1 -2 6 -5 6 0 0 -1 1 -1 2 0 1 1 1 6 -1 1 0 4 4 3 6 0 0 1 1 1 0 1 0 2 -1 2 -2 -1 -2 1 -4 3 -4 0 0 1 0 2 0 3 -2 7 2 5 5 -1 1 0 2 2 0 1 -2 4 0 4 1 -1 1 0 2 1 2 3 1 3 4 0 5 -2 0 -2 1 -1 1 1 1 1 2 0 3 -2 1 -8 1 -9 0 0 -1 -1 -1 -2 -1 -1 1 0 2 1 3 1 1 2 2 2 3 0 1 -4 4 -5 4 -1 0 -2 0 -2 1 -1 1 -2 1 -7 0z"/>
    <path d="M355 315 c-1 -1 -3 -1 -3 -1 0 1 -4 -3 -5 -7 -3 -6 -10 -12 -17 -14 -4 -1 -6 -2 -6 -3 1 -1 1 -2 1 -4 0 -2 0 -2 2 -1 l3 0 1 -18 c0 -9 0 -21 0 -24 0 -4 0 -13 0 -20 0 -12 0 -33 0 -44 0 -10 1 -33 2 -33 2 0 2 6 2 20 -1 8 0 18 0 23 1 6 1 11 0 21 -1 10 -1 15 0 25 1 10 1 15 0 23 -1 6 -1 14 0 19 l0 9 6 0 c12 -2 23 -4 23 -5 0 0 -1 -1 -2 -2 -1 -1 0 -5 2 -4 0 1 0 0 0 -2 0 -2 0 -2 2 -2 1 0 2 0 2 -1 0 -2 2 -1 5 1 2 2 3 3 2 4 0 2 0 2 1 1 1 0 2 -1 2 0 1 0 1 -1 1 -3 0 -3 0 -3 1 -3 1 0 2 -1 2 -2 1 -2 5 -3 6 -1 0 1 1 2 2 2 1 0 2 1 2 2 0 2 0 3 -1 3 -1 0 -1 0 -1 1 0 1 4 0 5 -1 1 -2 4 -3 5 0 0 0 1 1 3 1 3 0 3 3 1 5 -1 1 -1 2 -1 3 2 1 -1 4 -3 3 -1 0 -2 0 -2 1 0 2 -4 1 -5 -1 -1 -1 -1 -1 -2 0 -1 1 -2 2 -3 2 -1 0 -2 0 -1 1 0 1 1 1 2 0 2 0 8 3 8 5 0 1 -1 1 -2 2 -1 0 -2 1 -2 2 1 1 -1 3 -3 2 -1 0 -2 0 -2 1 -1 1 -5 1 -5 0 0 -1 -1 -1 -1 -1 -1 0 -2 -1 -2 -2 0 -1 -1 -2 -1 -2 -1 0 -2 1 -2 2 1 2 -5 4 -7 2 0 -1 -1 -2 -2 -2 -1 1 -4 -1 -3 -2 0 -1 -1 -2 -1 -2 -3 -1 -2 -5 1 -4 1 0 1 -1 1 -2 0 -1 1 -1 3 -1 3 1 4 0 2 -1 -1 -1 -1 -1 0 -2 1 -2 1 -2 -1 -2 -1 1 -3 1 -4 0 0 -1 -1 -1 -1 0 0 0 -1 1 -3 2 -2 1 -2 1 0 2 2 2 -1 4 -5 3 -3 -1 -14 2 -14 3 0 2 8 8 12 8 2 1 6 2 8 3 2 0 7 2 11 2 7 1 13 4 12 6 -1 0 -2 0 -4 -1 -2 -1 -11 -3 -11 -1 0 0 1 2 3 3 l2 3 -2 0 c-2 -1 -5 -2 -6 -4 -3 -3 -5 -4 -8 -4 -2 -1 -5 -1 -6 -2 -4 0 -4 3 1 7 4 4 4 5 0 3z"/>
    <path d="M173 309 c-1 0 -1 -2 0 -3 2 -3 1 -3 -3 -3 -4 1 -6 0 -6 -2 0 -1 2 -1 5 -1 4 -1 5 -2 8 -5 l3 -3 -3 -2 c-7 -3 -16 0 -19 6 -2 3 -4 3 -3 -1 0 -2 0 -2 -3 -2 -2 0 -4 0 -4 -1 0 -1 3 -2 7 -2 1 0 4 -1 6 -3 l4 -2 -4 -2 c-2 -1 -4 -2 -4 -2 -1 1 -1 1 0 1 1 0 2 1 2 2 0 2 -6 5 -7 3 -1 -1 -2 -1 -3 0 -2 1 -2 1 -3 0 0 0 -1 -1 -2 -1 -2 0 -2 -2 0 -4 1 -2 1 -2 -2 -1 -3 0 -8 -2 -7 -4 0 -1 0 -2 -1 -3 -1 -1 0 -4 2 -3 0 0 1 -1 1 -2 1 -2 3 -1 5 1 2 2 2 2 3 0 0 -2 1 -3 2 -3 1 0 3 3 2 3 0 0 1 1 1 2 2 1 2 1 2 -1 0 -2 0 -2 1 -2 1 0 2 -1 2 -1 0 -2 3 -1 4 1 0 0 1 1 2 1 0 0 1 1 1 2 0 1 0 2 0 3 1 3 0 4 -2 3 -1 0 -2 0 -2 1 0 1 1 1 2 1 1 0 4 1 6 2 2 1 6 2 9 2 l6 1 0 -23 c-1 -15 -1 -25 0 -30 1 -6 1 -11 0 -21 -1 -10 -1 -16 0 -23 0 -7 0 -14 0 -19 -1 -10 0 -22 2 -23 1 0 1 1 1 7 0 4 0 19 1 33 0 32 0 43 0 58 0 6 0 17 0 26 l1 15 3 0 c3 0 3 0 5 3 l2 4 -5 1 c-4 1 -13 8 -13 11 0 2 -5 6 -5 5z"/>
    <path d="M289 306 c-2 -2 -5 -6 -7 -10 l-4 -8 5 3 c2 2 4 4 4 5 0 1 1 4 2 7 3 5 3 6 0 3z"/>
    <path d="M219 302 c1 -4 3 -17 2 -17 -1 0 -3 1 -6 2 -8 4 -12 4 -14 0 -1 -4 -1 -4 4 -6 5 -1 12 -7 14 -12 2 -4 2 -6 3 -29 0 -14 1 -25 1 -24 4 4 5 12 5 46 -1 37 -1 37 -7 42 -3 3 -4 3 -2 -2z"/>
    <path d="M198 292 c-4 -2 -4 -4 -4 -34 0 -16 0 -33 0 -38 -1 -20 0 -26 0 -34 1 -4 2 -8 2 -8 1 0 2 37 2 50 -1 14 0 28 0 42 1 6 1 13 1 14 0 2 1 4 3 6 3 3 2 4 -4 2z"/>
    <path d="M315 292 c-2 -3 -1 -11 2 -11 2 1 4 -18 3 -36 0 -10 0 -20 0 -49 1 -19 1 -19 2 -17 1 1 2 9 2 31 1 65 0 78 -2 81 -1 2 -5 3 -7 1z"/>
    <path d="M230 270 c1 -6 1 -9 3 -11 1 -1 4 -7 6 -12 3 -5 7 -12 10 -16 6 -8 10 -18 10 -22 0 -6 1 -4 6 5 5 10 5 11 -2 23 -7 10 -11 17 -11 20 0 1 -2 4 -4 7 -2 3 -4 7 -5 9 l-1 4 -1 -4 -1 -3 -4 5 c-6 6 -6 5 -6 -5z"/>
    <path d="M257 251 c1 -3 5 -10 6 -10 2 0 1 3 -2 7 -3 5 -5 6 -4 3z"/>
    <path d="M238 238 c-1 -2 -4 -8 -7 -14 -14 -24 -17 -38 -11 -63 1 -6 2 -12 3 -12 0 -1 6 12 7 15 0 0 0 3 -1 7 -2 10 -2 21 1 31 4 10 4 10 5 0 0 -6 1 -11 2 -16 l3 -7 4 6 5 6 -2 6 c-3 7 -3 20 -1 26 l2 4 -4 8 -5 7 -1 -4z"/>
    <path d="M235 188 c-1 -1 -4 -15 -4 -16 1 -2 5 11 5 14 0 2 -1 3 -1 2z"/>
    <path d="M251 154 c-4 -7 -6 -14 -5 -17 1 -4 9 -21 10 -20 0 0 2 4 5 8 l3 7 -3 7 c-2 4 -5 10 -5 14 l-2 6 -3 -5z"/>
    <path d="M242 122 c0 -7 5 -19 7 -19 3 0 3 7 0 11 -2 3 -4 7 -5 10 -2 7 -2 6 -2 -2z"/>
  </g>
</svg>
